<svg width="175" height="190" viewBox="0 0 175 190" fill="none" xmlns="http://www.w3.org/2000/svg">
<path d="M142.744 121.473C133.304 137.766 122.049 153.022 114.527 170.288C85.0748 145.019 40.227 139.179 22.8715 100.713C18.2038 90.3453 15.5733 78.6207 17.5093 67.2809C18.1697 63.4335 19.9245 54.6656 23.4769 52.4584C27.1493 50.1702 34.8218 52.4785 38.5322 53.7137C62.6827 61.8135 70.0893 88.8671 80.0196 109.471C81.7046 112.966 96.3701 103.629 96.8541 100.551C100.852 75.1177 107.854 49.8259 118.699 26.3972C121 21.4158 124.824 11.5543 130.93 10.805C136.662 10.0963 142.513 14.1461 146.019 18.1758C153.622 26.9438 155.054 39.6201 156.494 50.6561C159.854 76.4338 155.761 99.012 142.744 121.473V121.473ZM174.526 53.9568C173.515 36.5016 171.899 4.73018 149.802 0.47777C130.89 -3.1469 111.825 14.5512 104.044 29.9003C96.5118 44.7635 90.8105 60.7202 86.5411 77.0211C80.7426 64.8713 73.6782 53.5112 61.6498 46.6264C44.4438 36.7851 23.9672 42.0299 10.4388 55.7996C-3.79642 70.3185 -1.65625 93.2207 6.08741 110.392C14.7759 129.654 31.3186 141.955 49.4344 151.703C69.585 162.545 91.5639 171.098 106.752 188.965C109.717 192.451 125.425 181.497 123.536 179.277C122.736 178.334 121.907 177.422 121.067 176.525C123.953 175.015 127.325 172.826 128.291 170.062C135.38 149.796 148.569 132.831 159.143 114.373C170.044 95.3469 175.806 76.0693 174.526 53.9568" fill="#FF0000"/>
</svg>
